<?xml version="1.0" encoding="UTF-8" standalone="no"?>
<!DOCTYPE svg PUBLIC "-//W3C//DTD SVG 1.1//EN" "http://www.w3.org/Graphics/SVG/1.1/DTD/svg11.dtd">
<svg width="100%" height="100%" viewBox="0 0 779 539" version="1.1" xmlns="http://www.w3.org/2000/svg" xmlns:xlink="http://www.w3.org/1999/xlink" xml:space="preserve" xmlns:serif="http://www.serif.com/" style="fill-rule:evenodd;clip-rule:evenodd;stroke-linejoin:round;stroke-miterlimit:2;">
    <path d="M171.526,461.023C137.965,452.038 122.543,412.881 122.543,375.028C122.543,267.111 213.241,288.358 261.742,236.938C310.902,184.821 289.46,96.243 404.916,96.243C432.577,96.243 449.484,134.023 478.082,134.023C527.564,134.023 559.867,52.621 601.869,52.621C693.43,52.621 621.145,217.918 681.779,225.126C727.697,230.578 743.182,268.341 743.182,311.586C743.182,490.843 612.746,483.883 574.871,483.883C560.263,483.883 545.367,483.501 530.459,483.501C519.593,483.501 517.723,483.688 504.185,483.688C401.791,483.688 280.088,469.858 224.594,469.858L222.375,469.858C203.604,469.858 186.402,466.716 171.526,461.023Z" style="fill:rgb(227,243,251);fill-rule:nonzero;"/>
    <path d="M693.301,369.013C685.494,370.311 637.995,462.058 637.995,462.058C637.995,462.058 677.686,320.211 658.166,313.056C640.156,306.448 591.683,421.701 584.291,439.573C583.674,441.081 583.34,441.883 583.34,441.883C583.34,441.883 583.671,441.073 584.291,439.573C593.527,416.976 666.131,236.196 629.537,225.216C590.497,213.501 531.937,430.176 531.937,430.176C528.176,443.331 524.866,462.246 522.636,476.721L682.891,473.766C682.891,473.766 701.109,367.708 693.301,369.013Z" style="fill:url(#_Linear1);"/>
    <path d="M714.488,438.883C715.226,445.191 721.53,439.626 721.53,445.191C721.53,450.748 714.488,454.078 715.226,458.908C715.969,463.723 725.236,454.821 723.756,465.201C723.536,466.705 723.253,468.198 722.906,469.678L678.383,469.678C680.606,453.906 683.886,442.131 689.65,433.326C690.646,431.812 691.761,430.38 692.984,429.043C699.813,421.573 708.418,418.303 711.893,410.713C715.969,401.818 714.115,389.211 721.16,387.358C728.201,385.506 719.676,407.001 719.307,414.418C718.934,421.836 725.61,420.718 724.495,426.651C723.383,432.583 713.746,432.583 714.488,438.883Z" style="fill:url(#_Linear2);"/>
    <path d="M470.333,385.768C467.994,364.896 438.245,316.551 417.693,316.551C404.226,316.551 394.039,332.751 393.47,362.181C386.92,347.848 380.581,341.998 374.876,341.998C360.787,341.998 350.562,377.661 350.562,409.311C350.562,458.008 377.474,472.558 417.242,472.558C450.757,472.558 471.415,448.476 471.415,404.203C471.415,398.406 471.061,392.256 470.333,385.768Z" style="fill:rgb(129,164,227);fill-rule:nonzero;"/>
    <path d="M323.821,381.298C321.977,361.153 298.52,314.488 282.314,314.488C271.696,314.488 263.662,330.133 263.215,358.536C258.05,344.698 253.052,339.058 248.552,339.058C237.444,339.058 229.382,373.468 229.382,404.016C229.382,451.011 250.601,465.058 281.958,465.058C308.384,465.058 324.674,441.816 324.674,399.088C324.674,393.493 324.394,387.561 323.821,381.298Z" style="fill:rgb(102,138,204);fill-rule:nonzero;"/>
    <path d="M203.619,200.353C212.961,224.106 215.404,250.543 215.404,271.993C215.404,293.458 212.965,309.921 212.555,313.806L213.301,313.881C213.706,310.033 216.154,293.503 216.154,271.993C216.153,250.483 213.71,223.971 204.316,200.076L203.619,200.353ZM166.281,176.893C182.703,188.518 191.864,211.146 196.876,232.566C201.892,253.978 202.779,274.161 202.778,280.858L203.528,280.858C203.527,274.108 202.64,253.888 197.605,232.393C192.566,210.898 183.399,188.113 166.714,176.286L166.281,176.893ZM129.244,218.458C135.738,222.313 141.542,228.913 146.573,236.638C154.121,248.233 159.934,262.371 163.853,273.606C165.465,278.228 166.947,282.895 168.297,287.601C168.795,289.341 169.171,290.736 169.422,291.688C169.673,292.648 169.798,293.158 169.799,293.166L170.528,292.986C170.525,292.971 166.91,278.128 160.002,261.321C156.547,252.913 152.27,244.018 147.202,236.233C142.132,228.448 136.273,221.766 129.627,217.813L129.244,218.458Z" style="fill:rgb(16,19,43);fill-rule:nonzero;"/>
    <path d="M200.657,199.993C200.627,199.799 200.611,199.604 200.61,199.408C200.61,197.158 202.729,195.643 204.748,195.643C207.08,195.643 208.34,197.526 208.34,199.843C208.34,202.251 206.646,203.361 204.844,203.361C202.979,203.361 200.999,202.168 200.657,199.993ZM168.27,169.656L168.158,169.656C165.096,169.656 163.313,172.648 163.313,175.446C163.313,177.883 164.674,180.163 167.731,180.163C170.262,180.163 171.161,177.373 171.161,174.898C171.161,172.303 170.148,169.701 168.27,169.656ZM127.984,211.686C124.938,212.931 123.787,214.603 123.787,216.186C123.787,218.676 126.651,220.941 129.462,220.941C131.971,220.941 133.415,219.306 133.415,216.861C133.415,214.273 131.734,211.408 129.309,211.408C128.888,211.408 128.445,211.498 127.984,211.686Z" style="fill:rgb(250,151,196);fill-rule:nonzero;"/>
    <path d="M178.268,286.341C155.057,270.951 159.943,295.866 178.268,312.486C151.877,300.508 147.239,317.128 179.243,332.766C148.705,323.481 153.99,349.911 191.947,363.553C154.317,351.231 145.788,369.921 198.058,387.493C194.266,386.481 190.446,386.188 187.082,386.466C173.843,387.546 167.818,397.573 199.693,408.651C200.96,409.093 202.29,409.528 203.677,409.971C202.466,409.84 201.251,409.742 200.035,409.678C174.484,408.403 171.638,425.878 219.07,437.091C168.494,435.621 172.89,450.523 210.762,456.148C185.652,457.663 185.096,463.798 193.028,469.678L265.759,469.678C202.06,398.046 187.333,302.683 182.416,252.883C175.795,253.333 174.65,271.378 178.268,286.341Z" style="fill:url(#_Linear3);"/>
    <path d="M289.436,441.973C315.336,406.063 300.185,390.666 269.888,426.343C296.521,377.226 280.644,369.411 252.055,400.686C263.536,367.213 257.675,350.113 241.549,367.453C251.564,341.803 244.237,334.228 229.086,349.131C242.772,317.608 232.016,311.016 216.14,333.741C227.862,301.243 220.045,282.186 205.633,303.688C212.228,277.791 206.857,271.191 194.152,283.408C194.393,264.598 189.507,252.868 182.664,252.868C182.579,252.868 182.499,252.883 182.416,252.883C187.333,302.683 202.06,398.046 265.759,469.678L294.849,469.678C344.636,433.138 332.323,409.281 289.436,441.973Z" style="fill:rgb(160,194,232);fill-rule:nonzero;"/>
    <path d="M616.438,261.201C616.431,261.223 570.859,365.166 570.854,462.486C570.854,467.046 570.953,471.591 571.163,476.113L571.912,476.076C571.704,471.549 571.602,467.018 571.604,462.486C571.603,413.938 582.982,363.681 594.364,325.573C600.055,306.516 605.746,290.496 610.014,279.238C611.674,274.853 613.393,270.49 615.17,266.151C615.644,264.995 616.125,263.842 616.615,262.693C616.948,261.906 617.124,261.501 617.124,261.501L616.438,261.201Z" style="fill:rgb(92,123,226);fill-rule:nonzero;"/>
    <path d="M585.041,439.573C584.421,441.073 584.09,441.883 584.09,441.883C584.09,441.883 584.424,441.081 585.041,439.573Z" style="fill:url(#_Linear4);"/>
    <path d="M549.336,476.226C551.653,357.058 514.944,340.228 483.766,347.953C452.587,355.678 501.455,475.783 501.455,475.783L549.336,476.226Z" style="fill:url(#_Linear5);"/>
    <path d="M493.118,320.533L493.241,320.181C490.95,319.378 489.619,317.173 489.617,314.916C489.611,313.644 490.052,312.409 490.863,311.428C494.95,306.523 496.934,301.371 496.934,296.496C496.935,292.303 495.461,288.336 492.635,284.953C489.809,281.571 485.639,278.773 480.245,276.891C477.922,276.081 476.512,273.853 476.512,271.566C476.512,270.561 476.785,269.548 477.373,268.633C479.711,265.026 480.89,261.291 480.89,257.721C480.892,253.896 479.525,250.273 476.813,247.258C474.1,244.243 470.052,241.836 464.692,240.381C462.236,239.706 460.655,237.396 460.655,234.958C460.655,234.118 460.843,233.263 461.247,232.461C462.424,230.113 463.014,227.728 463.014,225.433C463.016,222.021 461.707,218.818 459.143,216.276C456.579,213.733 452.77,211.858 447.774,211.026C445.037,210.561 443.177,208.116 443.177,205.476C443.177,204.816 443.293,204.141 443.539,203.481C444.19,201.763 444.498,200.113 444.498,198.553C444.501,194.863 442.756,191.743 439.869,189.576C436.982,187.408 432.961,186.178 428.357,186.178C428.137,186.178 427.916,186.178 427.693,186.186L427.57,186.186C424.942,186.193 422.503,184.018 422.264,181.191C421.712,175.086 418.961,169.131 415.364,164.676C411.764,160.228 407.322,157.259 403.26,157.244C401.984,157.244 400.748,157.543 399.615,158.196C398.077,159.081 396.973,160.431 396.265,162.073C395.555,163.716 395.234,165.651 395.233,167.736C395.241,174.831 398.936,183.778 404.488,189.306C405.409,190.226 405.928,191.476 405.928,192.778C405.925,194.11 405.382,195.386 404.424,196.311C400.043,200.601 397.983,204.981 397.981,208.843C397.98,210.913 398.577,212.818 399.715,214.453C400.852,216.081 402.524,217.431 404.659,218.398C406.508,219.238 407.492,220.978 407.494,222.786C407.494,223.978 407.063,225.186 406.151,226.191C402.394,230.338 400.267,234.741 400.264,238.798C400.262,240.966 400.874,243.028 402.157,244.858C403.439,246.696 405.385,248.301 408.035,249.583C409.853,250.461 410.855,252.208 410.856,254.001C410.853,255.238 410.374,256.428 409.52,257.323C404.923,262.288 402.644,267.306 402.643,271.903C402.641,274.768 403.537,277.453 405.291,279.808C407.043,282.163 409.644,284.181 413.048,285.756C414.885,286.596 415.841,288.313 415.844,290.098C415.84,291.426 415.315,292.7 414.383,293.646C409.101,299.076 406.386,304.761 406.385,310.056C406.383,313.416 407.482,316.603 409.682,319.423C411.881,322.251 415.172,324.711 419.555,326.661C421.333,327.423 422.49,329.182 422.485,331.116C422.483,332.473 421.916,333.853 420.711,334.866C413.135,341.233 408.603,348.523 408.598,355.641C408.598,356.578 408.676,357.508 408.838,358.431C409.567,362.661 412.286,366.426 415.777,369.531C419.271,372.636 423.547,375.073 427.46,376.633C435.878,379.978 445.315,381.673 454.809,381.673C470.38,381.673 486.112,377.121 497.744,367.806C500.296,365.758 502.923,363.178 505.054,360.351C507.184,357.523 508.822,354.441 509.371,351.381L509.002,351.313L509.371,351.388C509.831,348.951 510.063,346.581 510.063,344.293C510.064,338.721 508.681,333.666 505.878,329.518C503.077,325.371 498.859,322.131 493.241,320.181L493.118,320.533L492.994,320.886C498.482,322.798 502.549,325.926 505.256,329.938C507.963,333.951 509.313,338.848 509.313,344.293C509.313,346.528 509.086,348.853 508.633,351.246C508.118,354.141 506.54,357.133 504.455,359.901C502.37,362.668 499.783,365.211 497.275,367.221C485.812,376.408 470.236,380.923 454.809,380.923C445.404,380.923 436.057,379.243 427.737,375.936C423.9,374.413 419.686,371.998 416.275,368.968C412.861,365.938 410.259,362.286 409.576,358.303C409.424,357.424 409.348,356.533 409.348,355.641C409.342,348.861 413.709,341.728 421.193,335.436C422.57,334.281 423.236,332.683 423.235,331.116C423.24,328.886 421.907,326.858 419.858,325.978C415.562,324.066 412.379,321.673 410.274,318.966C408.17,316.258 407.136,313.251 407.135,310.056C407.132,305.023 409.727,299.511 414.92,294.163C415.989,293.08 416.59,291.619 416.594,290.098C416.598,288.051 415.472,286.033 413.362,285.073C410.047,283.543 407.554,281.593 405.893,279.358C404.231,277.131 403.393,274.611 403.393,271.903C403.391,267.568 405.557,262.708 410.068,257.841C411.111,256.723 411.607,255.351 411.606,254.001C411.607,251.931 410.44,249.913 408.361,248.908C405.801,247.663 403.967,246.141 402.772,244.431C401.578,242.721 401.014,240.823 401.014,238.798C401.01,235.003 403.027,230.751 406.706,226.693C407.691,225.631 408.241,224.235 408.244,222.786C408.253,220.6 406.965,218.606 404.969,217.716C402.937,216.793 401.381,215.526 400.33,214.018C399.28,212.518 398.732,210.763 398.731,208.843C398.729,205.258 400.662,201.043 404.948,196.851C406.05,195.783 406.675,194.313 406.678,192.778C406.678,191.276 406.08,189.834 405.018,188.773C399.622,183.418 395.975,174.583 395.983,167.736C395.983,165.726 396.296,163.888 396.953,162.366C397.612,160.851 398.605,159.643 399.988,158.849C401.004,158.263 402.101,157.994 403.26,157.994C406.941,157.986 411.273,160.798 414.781,165.148C418.292,169.491 420.985,175.333 421.516,181.258C421.799,184.476 424.531,186.936 427.57,186.936L427.712,186.936C427.928,186.928 428.143,186.928 428.357,186.928C432.83,186.928 436.692,188.128 439.418,190.176C442.145,192.231 443.744,195.103 443.748,198.553C443.748,200.008 443.46,201.576 442.838,203.218C442.566,203.94 442.427,204.705 442.427,205.476C442.426,208.461 444.527,211.236 447.65,211.768C452.53,212.578 456.185,214.401 458.615,216.808C461.045,219.223 462.262,222.216 462.264,225.433C462.264,227.601 461.707,229.866 460.576,232.123C460.134,233.003 459.905,233.974 459.905,234.958C459.905,237.711 461.686,240.328 464.494,241.101C469.747,242.526 473.66,244.873 476.254,247.761C478.85,250.648 480.139,254.076 480.14,257.721C480.14,261.118 479.016,264.718 476.744,268.221C476.101,269.218 475.76,270.38 475.762,271.566C475.762,274.153 477.352,276.673 479.997,277.596C485.288,279.448 489.337,282.178 492.059,285.433C494.781,288.696 496.183,292.483 496.184,296.496C496.184,301.161 494.286,306.148 490.286,310.948C489.364,312.064 488.862,313.468 488.867,314.916C488.867,317.458 490.371,319.971 492.994,320.886L493.118,320.533Z" style="fill:rgb(35,38,60);fill-rule:nonzero;"/>
    <path d="M426.865,216.448C433.001,233.061 438.342,249.951 443.106,266.998C447.889,284.046 452.061,301.258 455.772,318.561C457.627,327.215 459.344,335.899 460.922,344.608C461.705,348.966 462.464,353.316 463.139,357.711L465.102,370.828L472.954,423.306L473.695,423.193L465.844,370.716L463.881,357.598C463.204,353.196 462.443,348.838 461.66,344.473C460.08,335.756 458.362,327.065 456.506,318.403C452.791,301.086 448.616,283.858 443.828,266.796C439.06,249.733 433.713,232.821 427.568,216.186L426.865,216.448Z" style="fill:rgb(35,38,60);fill-rule:nonzero;"/>
    <path d="M739.883,469.611C738.465,469.611 737.011,469.633 735.522,469.678L50.386,469.678C50.386,473.436 0,471.351 0,483.906C0,497.646 46.954,497.728 60.241,497.728C136.087,497.728 150.625,486.763 184.748,486.763C246.64,486.763 206.611,521.991 249.229,521.991C273.795,521.991 307.001,506.593 332.509,506.593C377.809,506.593 401.204,538.131 461.273,538.131C502.676,538.131 576.099,530.871 576.099,516.126C576.099,507.628 563.456,510.808 560.413,504.486C566.854,500.301 578.684,498.853 593.576,498.853C626.728,498.853 675.054,506.016 712.878,506.016C723.258,506.016 732.847,505.476 741.115,504.103C766.762,499.843 778.282,491.818 778.282,484.581C778.282,476.616 764.332,469.611 739.883,469.611Z" style="fill:rgb(200,220,242);fill-rule:nonzero;"/>
    <path d="M159.137,461.263C163.886,472.836 162.698,473.436 171.008,471.951C179.228,470.481 186.862,467.278 186.739,476.691L186.946,476.691L192.71,468.246C180.127,455.616 180.406,462.216 167.111,456.463C160.378,453.553 158.608,445.851 153.347,445.851C148.273,445.851 131.206,458.533 134.611,473.061C134.611,473.061 135.691,465.718 142.221,460.671C148.75,455.623 154.389,449.691 159.137,461.263Z" style="fill:rgb(70,101,204);fill-rule:nonzero;"/>
    <path d="M187.923,476.443C187.898,476.526 187.868,476.608 187.841,476.691L199.171,476.691C199.365,476.233 199.549,475.776 199.711,475.318C203.87,463.603 196.192,450.156 195.158,443.361C194.124,436.558 200.345,428.241 200.192,419.548C200.041,410.848 187.774,397.251 187.774,397.251C191.8,407.181 191.8,413.533 190.278,418.566C188.443,424.641 184.396,428.803 182.524,434.998C177.942,450.156 191.926,463.198 187.923,476.443Z" style="fill:rgb(55,75,189);fill-rule:nonzero;"/>
    <path d="M187.562,468.778C188.421,454.446 192.434,446.421 199.601,441.261C206.768,436.101 208.201,427.783 208.201,427.783C208.201,427.783 206.768,443.556 204.188,447.853C201.608,452.151 192.721,459.321 194.441,474.223C188.708,469.641 186.701,483.111 187.562,468.778Z" style="fill:rgb(75,92,189);fill-rule:nonzero;"/>
    <path d="M186.151,476.691L198.33,476.691C191.821,467.878 185.333,449.878 185.05,439.431C184.755,428.481 178.84,414.583 167.602,406.896C156.363,399.208 151.036,388.356 151.036,388.356C151.1,411.688 161.573,408.336 169.087,425.743C177.329,444.831 169.745,462.471 186.151,476.691Z" style="fill:rgb(75,92,189);fill-rule:nonzero;"/>
    <path d="M651.929,460.618C665.02,444.231 669.314,431.188 669.312,419.848C669.311,409.296 665.611,400.251 661.943,391.356C658.269,382.461 654.628,373.708 654.629,363.718C654.631,354.463 657.745,344.113 666.941,331.521L666.335,331.078C657.071,343.753 653.878,354.291 653.879,363.718C653.881,373.896 657.581,382.746 661.25,391.641C664.922,400.543 668.563,409.476 668.562,419.848C668.561,430.993 664.364,443.841 651.343,460.146L651.929,460.618Z" style="fill:rgb(16,19,43);fill-rule:nonzero;"/>
    <path d="M665.841,332.106C668.511,313.746 677.525,299.061 684.869,305.068C692.213,311.076 678.192,324.096 665.841,332.106ZM655.436,356.533C665.738,345.568 678.535,339.981 680.609,347.376C682.866,356.481 667.51,359.481 655.436,356.533ZM657.154,347.953C658.676,333.838 654.814,321.246 648.246,324.306C640.343,328.273 647.624,341.121 657.154,347.953ZM654.824,373.506C641.137,374.503 627.785,374.503 630.121,365.158C632.459,355.813 646.479,363.156 654.824,373.506ZM658.831,382.851C658.831,382.851 670.976,358.191 679.074,367.393C687.172,376.596 658.831,382.851 658.831,382.851ZM666.175,402.546C647.146,403.213 635.797,398.203 638.467,392.196C642.047,384.141 656.494,391.866 666.175,402.546ZM668.178,411.223C674.187,400.881 673.185,389.863 679.528,387.523C685.871,385.191 696.553,401.211 668.178,411.223ZM665.072,437.698C649.549,435.478 638.682,422.616 646.222,415.296C653.762,407.976 660.859,422.616 665.072,437.698ZM661.594,479.151C663.362,468.711 674.276,460.461 679.652,453.823C685.171,447.006 682.898,431.091 682.898,431.091C682.898,431.091 681.599,442.131 671.533,449.923C661.677,457.558 656.182,463.948 653.213,479.151L661.594,479.151Z" style="fill:rgb(55,75,189);fill-rule:nonzero;"/>
    <path d="M656.665,478.483C656.524,478.716 656.402,478.926 656.268,479.151L663.548,479.151C670.21,473.316 693.146,471.988 703.025,456.448C688.418,473.398 666.169,462.988 656.665,478.483Z" style="fill:rgb(75,92,189);fill-rule:nonzero;"/>
    <path d="M653.992,479.151L655.923,479.151C654.674,469.056 639.833,461.338 633.544,458.046C626.725,454.468 623.154,445.056 623.154,445.056C623.154,445.056 622.469,459.223 626.401,463.566C635.012,473.068 646.607,470.901 653.992,479.151Z" style="fill:rgb(55,75,189);fill-rule:nonzero;"/>
    <path d="M652.512,479.151L663.529,479.151C658.344,473.226 655.533,467.353 655.299,460.318C655.041,452.593 650.474,440.743 640.687,435.313C630.9,429.891 623.091,417.673 623.091,417.673C623.146,434.128 632.521,436.993 639.064,449.278C646.038,462.366 639.768,469.551 652.512,479.151Z" style="fill:rgb(75,92,189);fill-rule:nonzero;"/>
    <path d="M377.057,23.215C377.057,23.215 371.566,0.507 381.173,0.008C390.781,-0.491 377.057,23.215 377.057,23.215Z" style="fill:rgb(160,194,232);fill-rule:nonzero;"/>
    <path d="M377.431,24.712C377.431,24.712 360.088,12.609 368.322,4.625C376.557,-3.36 377.805,17.975 377.431,24.712Z" style="fill:rgb(200,220,242);fill-rule:nonzero;"/>
    <path d="M514.924,83.212C510.926,78.99 506.038,72.993 508.926,64.773C511.814,56.553 506.482,48.777 511.37,37.003C516.257,25.23 530.475,17.01 541.361,20.786C552.247,24.563 559.578,33.005 563.354,53.443C567.131,73.881 597.123,62.996 600.455,88.1C603.787,113.203 582.016,125.203 566.465,125.42C550.914,125.646 518.924,87.433 514.924,83.212Z" style="fill:rgb(99,55,91);fill-rule:nonzero;"/>
    <path d="M585.474,419.968C576.737,419.968 562.519,419.458 562.519,419.458C562.519,419.458 566.196,440.526 566.74,447.463C572.003,447.801 577.186,448.348 582.54,448.408C582.508,440.383 583.369,430.491 585.474,419.968Z" style="fill:rgb(241,173,179);fill-rule:nonzero;"/>
    <path d="M582.54,448.408C577.186,448.348 572.003,447.801 566.74,447.463C566.794,448.161 566.817,448.716 566.802,449.091C566.63,453.201 563.375,478.041 570.057,479.923C576.737,481.813 586.844,480.613 588.558,477.696C590.271,474.786 588.215,471.531 585.131,465.876C583.563,463.003 582.573,456.711 582.54,448.408Z" style="fill:rgb(16,19,43);fill-rule:nonzero;"/>
    <path d="M401.828,52.192C401.828,52.192 393.377,46.308 394.768,43.741C396.158,41.174 407.283,49.089 410.385,50.052C413.486,51.015 401.828,52.192 401.828,52.192Z" style="fill:rgb(241,173,179);fill-rule:nonzero;"/>
    <path d="M433.109,141.006C422.267,141.006 416.521,120.037 412.219,97.125C410.933,90.276 409.776,83.251 408.65,76.562C407.386,69.053 405.554,64.457 404.06,61.754C403.079,59.984 401.206,58.884 399.182,58.888C398.861,58.888 398.537,58.916 398.213,58.972C395.679,59.414 391.906,59.909 387.733,59.909C380.069,59.909 374.246,56.372 370.951,55.082C369.561,54.538 369.02,53.694 369.02,52.943C369.02,52.068 369.755,51.318 370.729,51.318C370.928,51.318 377.607,52.891 386.586,52.891C390.457,52.891 402.647,48.648 409.787,48.648C423.655,48.648 435.263,108.984 443.916,108.984C447.121,108.984 452.129,106.993 454.457,106.017C454.358,109.707 457.481,119.289 460.545,127.753C461.526,130.447 462.532,133.132 463.563,135.808C453.256,139.281 434.275,141.006 433.109,141.006Z" style="fill:url(#_Linear6);"/>
    <path d="M496.307,179.593C496.307,216.486 455.74,275.256 456.355,426.456C503.683,426.456 509.344,426.598 509.344,426.598C509.344,426.598 504.854,411.516 504.533,407.346C504.212,403.176 516.722,398.368 517.043,390.988C517.364,383.608 509.986,379.761 509.666,373.986C509.344,368.211 519.61,363.726 519.61,355.386C519.61,347.046 509.986,343.191 510.628,336.133C511.27,329.076 542.064,200.766 560.669,179.593L496.307,179.593Z" style="fill:url(#_Linear7);"/>
    <g transform="matrix(0.653362,0,0,0.653362,68.7596,-488.862)">
        <path d="M694.678,1073.95L726.792,1403.29C750.025,1406.56 799.428,1399.82 812.017,1403.29C812.017,1403.29 800.284,1372.18 799.048,1357.92C797.813,1343.67 802.136,1333.34 801.518,1321.04C800.901,1308.73 787.932,1297.12 785.461,1283.06C782.992,1268.99 800.284,1130.27 755.818,1073.95L694.678,1073.95Z" style="fill:url(#_Linear8);"/>
    </g>
    <path d="M474.516,139.656L466.346,142.866C466.346,142.866 463.474,135.816 460.545,127.753C457.361,118.957 454.113,108.953 454.483,105.61C456.826,104.654 459.161,103.678 461.487,102.681C462.665,107.298 465.448,117.57 469.174,127.453C470.791,131.758 472.592,135.996 474.516,139.656Z" style="fill:white;fill-rule:nonzero;"/>
    <path d="M601.959,141.418C591.923,146.218 577.901,150.763 570.196,153.463L568.139,145.709C568.139,145.709 562.198,153.898 561.689,163.776C561.421,168.898 562.619,174.471 566.866,179.601L496.309,179.601C496.309,170.316 499.818,152.781 496.309,144.898C492.794,137.008 490.547,133.378 490.547,133.378L485.375,135.403L474.518,139.656C468.176,127.596 463.184,109.31 461.49,102.681C487.344,91.633 501.321,83.112 517.496,80.145C524.678,78.833 532.288,78.61 541.566,79.75C544.648,80.126 548.08,80.572 551.652,81.253C563.739,83.552 577.424,88.589 584.746,103.242C591.165,116.073 598.125,132.268 601.959,141.418Z" style="fill:rgb(242,176,121);fill-rule:nonzero;"/>
    <path d="M570.198,153.463L572.172,160.896L604.916,148.558C604.916,148.558 603.795,145.798 601.959,141.411C591.925,146.218 577.9,150.771 570.198,153.463ZM551.653,81.253L547.049,98.517C547.049,98.517 546.125,95.937 542.254,93.174C538.388,90.411 528.442,97.224 525.678,102.936C524.201,91.518 512.777,93.728 512.777,93.728L517.496,80.145C524.678,78.833 532.288,78.61 541.566,79.75C544.648,80.126 548.08,80.572 551.653,81.253Z" style="fill:white;fill-rule:nonzero;"/>
    <path d="M545.368,51.999C544.565,57.424 542.56,74.547 548.093,80.636L548.093,80.642C542.044,85.157 533.988,91.098 529.378,94.186C528.347,94.883 526.935,94.665 526.162,93.69C523.219,89.996 521.035,83.666 519.889,79.757C521.459,79.522 523.038,79.343 524.621,79.222C526.003,76.42 527.346,70.982 527.346,63.748C522.985,62.577 517.616,57.202 518.285,46.465C518.96,35.73 521.978,32.877 525.838,31.202C528.188,35.895 538.083,45.459 543.457,42.607C548.825,39.754 549.659,43.612 549.328,45.459C549.119,46.611 547.723,48.23 546.712,49.274C545.991,50.02 545.521,50.973 545.368,51.999Z" style="fill:rgb(241,173,179);fill-rule:nonzero;"/>
    <path d="M561.689,163.776C561.629,163.583 561.578,163.388 561.535,163.191C560.129,157.003 560.705,150.471 562.025,145.191C563.45,139.491 563.611,129.958 563.491,129.328L568.139,145.709C568.139,145.709 562.198,153.898 561.689,163.776Z" style="fill:rgb(230,144,88);fill-rule:nonzero;"/>
    <path d="M599.18,210.958L551.408,245.923C549.913,247.014 547.785,246.682 546.693,245.188L499.916,181.273C499.493,180.695 499.264,179.996 499.264,179.28C499.264,178.204 499.779,177.191 500.647,176.556L548.417,141.598C549.911,140.505 552.039,140.834 553.133,142.326L599.91,206.248C601.01,207.748 600.684,209.863 599.18,210.958Z" style="fill:white;fill-rule:nonzero;"/>
    <path d="M546.927,170.391L528.543,183.846C527.468,184.63 525.94,184.393 525.152,183.321L522.78,180.081C521.994,179.005 522.23,177.472 523.305,176.683L541.688,163.236C542.104,162.929 542.607,162.764 543.123,162.764C543.897,162.764 544.625,163.135 545.08,163.761L547.452,167.001C548.237,168.075 548,169.605 546.927,170.391Z" style="fill:rgb(160,194,232);fill-rule:nonzero;"/>
    <path d="M576.626,159.224L579.682,169.333C580.155,170.901 579.546,172.605 578.186,173.518C569.141,179.571 536.209,201.411 531.54,201.411C527.032,201.411 520.471,199.063 516.254,199.063C514.97,199.063 513.905,199.281 513.179,199.851C511.404,201.231 510.742,202.558 510.742,203.848C510.742,205.176 511.454,206.458 512.375,207.681C514.082,209.961 519.548,222.081 525.563,222.081C529.188,222.081 591.198,198.006 595.553,196.228C603.818,192.861 614.718,188.226 612.832,179.593C613.135,178.341 608.515,157.904 604.916,148.558L576.626,159.224Z" style="fill:url(#_Linear9);"/>
    <path d="M525.685,42.239C525.824,42.512 525.907,42.977 525.905,43.545C525.911,45.352 525.115,48.144 524.207,49.797C524.096,50.003 524.041,50.227 524.041,50.448C524.042,50.922 524.288,51.381 524.717,51.643C526.082,52.475 527.129,52.531 527.175,52.533C527.181,52.533 527.186,52.533 527.192,52.533C527.398,52.533 527.567,52.364 527.567,52.158C527.567,51.958 527.408,51.792 527.209,51.783L527.207,51.783C527.138,51.779 526.261,51.705 525.107,51.002C524.913,50.885 524.793,50.675 524.791,50.448C524.792,50.346 524.818,50.246 524.866,50.157C525.839,48.361 526.649,45.549 526.655,43.545C526.653,42.911 526.576,42.352 526.355,41.904C526.292,41.777 526.162,41.697 526.02,41.697C525.815,41.697 525.645,41.866 525.645,42.071C525.645,42.13 525.659,42.187 525.685,42.239ZM533.453,44.935C533.453,45.69 532.972,46.302 532.379,46.302C531.786,46.302 531.305,45.69 531.305,44.935C531.305,44.18 531.786,43.569 532.379,43.569C532.972,43.569 533.453,44.18 533.453,44.935ZM522.557,44.545C522.557,45.299 522.076,45.911 521.483,45.911C520.89,45.911 520.409,45.299 520.409,44.545C520.409,43.79 520.89,43.178 521.483,43.178C522.076,43.178 522.557,43.79 522.557,44.545Z" style="fill:rgb(99,55,91);fill-rule:nonzero;"/>
    <path d="M471.542,133.363C471.514,133.295 471.488,133.236 471.461,133.168C471.488,133.236 471.515,133.295 471.542,133.363Z" style="fill:rgb(242,209,185);fill-rule:nonzero;"/>
    <path d="M466.346,142.866C466.346,142.866 465.174,139.986 463.563,135.808C464.471,138.168 465.399,140.521 466.346,142.866L474.516,139.656C474.517,139.656 474.517,139.656 474.518,139.656L474.516,139.656L466.346,142.866ZM485.375,135.403L488.901,134.016L485.38,135.403L485.375,135.403Z" style="fill:rgb(216,199,182);fill-rule:nonzero;"/>
    <path d="M466.346,142.866C466.346,142.866 465.174,139.986 463.563,135.808C462.653,133.446 461.603,130.663 460.545,127.753C461.752,127.843 462.88,127.888 463.937,127.888C465.91,127.888 467.637,127.738 469.171,127.453C469.892,129.375 470.656,131.28 471.461,133.168C471.488,133.236 471.514,133.295 471.542,133.363C472.451,135.499 473.443,137.598 474.516,139.656L466.346,142.866Z" style="fill:rgb(242,209,185);fill-rule:nonzero;"/>
    <path d="M474.518,139.656C473.444,137.598 472.452,135.499 471.542,133.363C471.515,133.295 471.488,133.236 471.461,133.168C470.664,131.308 469.9,129.388 469.171,127.453L469.174,127.453C476.809,126.058 479.674,121.53 484.322,117.378C487.5,112.978 491.544,109.158 496.588,107.336C495.397,111.991 491.41,117.563 489.283,122.772C487.162,127.986 490.544,133.378 490.544,133.378L488.901,134.016L485.375,135.403L485.374,135.403L474.518,139.656" style="fill:rgb(230,144,88);fill-rule:nonzero;"/>
    <path d="M388.625,23.157L369.461,26.754C368.594,26.916 367.78,26.457 367.643,25.729C367.5,24.963 368.159,24.222 369.078,24.099C375.288,23.266 381.834,21.021 388.053,19.92C389.102,19.734 390.076,20.301 390.242,21.182C390.41,22.074 389.685,22.957 388.625,23.157Z" style="fill:rgb(89,100,137);fill-rule:nonzero;"/>
    <path d="M69.646,357.118C69.502,361.146 72.525,363.741 79.58,364.026C86.635,364.311 90.811,362.443 90.811,359.421C90.811,356.398 89.515,350.203 81.884,350.061C74.253,349.918 69.79,353.083 69.646,357.118Z" style="fill:url(#_Linear10);"/>
    <path d="M44.42,458.218C43.853,469.341 53.777,476.406 74.758,475.753C95.739,475.101 111.901,473.008 113.46,463.716C115.019,454.423 101.835,444.868 84.257,445.003C66.677,445.131 44.987,447.096 44.42,458.218Z" style="fill:url(#_Linear11);"/>
    <path d="M48.248,435.148C47.855,443.256 62.381,447.448 77.954,447.186C93.528,446.923 109.231,445.746 108.97,437.106C108.708,428.473 93.789,423.103 78.609,423.366C63.428,423.628 48.64,427.033 48.248,435.148Z" style="fill:url(#_Linear12);"/>
    <path d="M54.136,415.288C54.398,421.438 67.615,425.233 79.394,425.106C91.172,424.971 104.128,424.581 104.39,418.168C104.651,411.756 94.967,406.656 80.179,407.173C65.391,407.698 53.875,409.138 54.136,415.288Z" style="fill:url(#_Linear13);"/>
    <path d="M65.729,400.071C65.467,405.568 69.916,409.363 80.778,409.363C91.64,409.363 101.063,409.101 101.717,402.688C102.371,396.276 94.781,391.168 84.05,391.693C73.319,392.218 65.99,394.573 65.729,400.071Z" style="fill:url(#_Linear14);"/>
    <path d="M119.993,336.268C119.993,336.268 94.643,335.188 88.247,335.308C81.849,335.428 79.435,337.266 76.296,339.906C73.158,342.546 58.552,353.413 61.328,355.828C63.133,357.396 70.955,352.588 76.21,349.033C80.343,346.228 85.133,344.511 90.115,344.226C92.431,344.098 94.539,344.226 95.489,344.961C98.144,347.016 96.628,354.381 93.557,357.276C90.97,359.713 89.24,362.068 89.873,364.768C90.067,365.601 91.027,365.998 91.773,365.578C97.606,362.323 114.849,353.946 122.044,354.501C121.562,345.688 119.993,336.268 119.993,336.268Z" style="fill:rgb(145,88,114);fill-rule:nonzero;"/>
    <path d="M357.229,465.883L284.266,465.883C271.81,465.883 262.735,454.063 265.97,442.033C271.676,420.801 280.165,403.978 280.165,403.978C280.165,403.978 336.412,412.138 362.801,403.798C367.144,412.821 371.888,428.616 375.518,442.003C378.778,454.041 369.703,465.883 357.229,465.883Z" style="fill:rgb(17,51,112);fill-rule:nonzero;"/>
    <path d="M292.817,465.921C265.379,464.818 229.673,457.903 212.595,422.691C240.002,444.358 292.817,465.921 292.817,465.921Z" style="fill:rgb(17,51,112);fill-rule:nonzero;"/>
    <path d="M281.719,472.056C277.433,473.488 274.172,474.891 271.778,475.918C264.334,479.106 244.479,472.723 235.615,468.471C226.757,464.218 228.884,456.418 236.328,456.771C240.798,456.981 257.018,456.178 269.269,455.496C271.792,455.354 274.307,455.083 276.803,454.686C276.949,459.748 277.948,466.701 281.719,472.056Z" style="fill:rgb(16,19,43);fill-rule:nonzero;"/>
    <path d="M316.029,466.063C300.605,466.776 289.481,469.468 281.719,472.056C277.948,466.701 276.949,459.748 276.803,454.686C283.729,453.601 290.47,451.553 296.829,448.603C299.866,447.193 303.344,445.588 307.152,443.818C309.603,449.488 312.978,457.618 316.029,466.063Z" style="fill:rgb(145,88,114);fill-rule:nonzero;"/>
    <path d="M434.141,422.691C416.036,458.128 378.345,464.638 348.632,465.726C380.911,452.916 423.232,432.433 434.141,422.691Z" style="fill:rgb(17,51,112);fill-rule:nonzero;"/>
    <path d="M434.141,422.691C423.232,432.433 380.911,452.916 348.632,465.726C336.851,470.398 326.408,474.058 319.321,475.798C318.29,472.531 317.193,469.285 316.029,466.063C312.978,457.618 309.603,449.488 307.152,443.818C342.646,427.408 407.039,397.881 415.705,395.698C427.76,392.668 441.941,403.798 434.141,422.691Z" style="fill:url(#_Linear15);"/>
    <path d="M463.534,369.486C463.21,374.301 461.573,379.236 459.319,380.968C459.096,381.141 458.618,381.366 457.918,381.636L457.886,381.651C453.499,383.031 451.365,377.968 450.805,371.691C450.244,365.511 451.212,358.138 453.059,354.636C453.67,353.466 454.377,352.723 455.154,352.588C457.421,352.236 458.95,352.536 460.006,353.286C462.605,355.123 462.362,359.661 463.229,363.838C463.586,365.548 463.668,367.506 463.534,369.486Z" style="fill:rgb(55,65,97);fill-rule:nonzero;"/>
    <path d="M181.202,318.553C183.644,317.916 184.313,315.793 186.486,315.793C187.98,315.793 189.146,317.091 190.753,317.091C195.638,317.091 191.967,311.181 198.593,311.181C199.426,311.181 200.157,311.316 201.049,311.316C202.267,311.316 203.783,311.068 206.269,309.906C231.834,297.973 262.06,275.511 270.434,272.586C280.222,269.158 292.696,266.953 325.727,268.423C358.757,269.886 379.797,274.783 387.387,282.126C393.203,287.751 403.77,331.093 408.379,350.983C409.391,355.348 411.369,355.386 411.369,356.481C411.369,357.201 410.717,358.311 410.717,358.963C410.717,359.406 411.136,359.586 411.503,359.586C412.325,359.586 413.208,358.693 413.773,358.693C414.153,358.693 414.945,359.826 416.06,359.826C416.557,359.826 417.139,359.653 418.14,359.458C429.307,357.321 449.572,353.458 455.154,352.588C454.377,352.723 453.67,353.466 453.059,354.636C451.212,358.138 450.244,365.511 450.805,371.691C451.365,377.968 453.499,383.031 457.886,381.651C448.582,385.236 400.931,396.471 392.519,391.251C385.349,386.788 377.211,346.626 374.135,330.118C374.008,329.443 373.021,329.533 373.027,330.216C373.142,353.421 369.997,389.886 362.801,403.798C336.412,412.138 280.165,403.978 280.165,403.978C280.165,403.978 274.09,396.336 273.046,389.046C272.007,381.756 276.344,372.726 275.306,362.826C274.262,352.941 267.664,346.341 266.798,339.568C266.021,333.501 266.079,328.416 267.098,319.071C267.186,318.273 266.7,317.516 265.939,317.263C265.454,317.098 264.926,317.181 264.481,317.428C251.98,324.358 209.914,343.896 196.484,346.858C181.558,350.158 124.96,358.836 116.281,359.361C117.669,343.213 113.887,332.128 113.887,332.128C113.887,332.128 152.987,325.903 181.202,318.553Z" style="fill:white;fill-rule:nonzero;"/>
    <path d="M322.154,281.743C322.154,281.743 310.808,373.401 309.14,381.898L328.855,398.728C328.855,398.728 342.049,383.263 346.598,379.168C342.504,368.698 330.728,299.188 329.716,281.848C328.703,264.516 322.154,281.743 322.154,281.743Z" style="fill:rgb(250,151,196);fill-rule:nonzero;"/>
    <path d="M319.492,269.076L322.154,281.743C325.107,282.351 326.814,282.801 329.716,281.848L332.378,269.496L319.492,269.076Z" style="fill:rgb(250,151,196);fill-rule:nonzero;"/>
    <path d="M384.508,472.018C377.701,471.703 366.825,473.563 358.515,473.331C363.278,468.073 358.343,459.681 352.962,452.878C352.962,452.878 362.884,446.143 368.2,446.496C373.517,446.848 398.69,460.671 399.047,465.283C399.728,474.118 392.309,472.378 384.508,472.018Z" style="fill:rgb(16,19,43);fill-rule:nonzero;"/>
    <path d="M358.515,473.331C357.37,473.301 356.227,473.218 355.089,473.083C346.575,472.018 325.307,463.153 325.307,463.153L333.941,443.151C345.346,448.986 352.962,452.878 352.962,452.878C358.343,459.681 363.278,468.073 358.515,473.331Z" style="fill:rgb(145,88,114);fill-rule:nonzero;"/>
    <path d="M333.941,443.151L325.307,463.153L318.926,476.631L292.817,465.921C292.817,465.921 240.002,444.358 212.595,422.691C212.094,421.656 211.614,420.611 211.156,419.556C202.648,398.728 220.727,384.358 233.845,391.543C243.448,396.801 302.809,427.221 333.941,443.151Z" style="fill:rgb(26,81,151);fill-rule:nonzero;"/>
    <path d="M506.734,357.186L506.727,357.186C504.798,361.933 499.615,368.796 491.082,370.738C480.275,373.191 470.284,370.033 463.534,369.486C462.133,369.366 460.873,369.366 459.777,369.546C456.351,370.123 453.091,371.001 450.805,371.691C450.244,365.511 451.212,358.138 453.059,354.636C455.3,354.276 457.688,353.826 460.006,353.286C464.566,352.251 468.844,350.916 471.163,349.506C475.079,347.136 489.184,337.416 490.375,338.721C491.56,340.026 480.887,351.051 480.887,351.051L483.733,357.456L490.253,354.133C490.253,354.133 490.967,340.258 493.221,338.721C495.469,337.176 495.947,355.678 495.947,355.678C495.947,355.678 504.836,351.643 507.091,352.476C507.868,352.761 507.759,354.681 506.734,357.186Z" style="fill:rgb(145,88,114);fill-rule:nonzero;"/>
    <path d="M495.791,355.333L485.359,360.066L485.669,360.756L496.101,356.016M487.883,365.263C487.885,365.263 491.154,364.153 495.165,362.631C499.178,361.108 503.926,359.181 506.918,357.516L506.553,356.856C503.634,358.483 498.895,360.418 494.899,361.933C492.9,362.691 491.085,363.343 489.77,363.808C489.062,364.059 488.353,364.307 487.642,364.551L487.883,365.263Z" style="fill:rgb(94,54,72);fill-rule:nonzero;"/>
    <path d="M339.157,268.971L311.642,267.958L310.438,278.406C310.438,278.406 322.282,271.701 325.963,270.388C330.962,271.963 336.884,275.518 340.831,279.066C340.29,275.271 339.558,271.168 339.157,268.971Z" style="fill:rgb(227,243,251);fill-rule:nonzero;"/>
    <path d="M336.712,256.633C336.565,257.571 336.533,258.756 336.59,260.031C336.724,263.256 337.438,267.028 338.405,268.918C335.66,270.913 314.583,270.081 312.819,267.996L312.736,261.793C312.698,257.526 311.724,253.333 309.947,249.471C298.651,245.938 301.676,242.113 305.471,241.138C302.465,234.748 300.784,227.233 306.235,222.891C317.041,214.281 328.866,211.243 332.407,217.318C335.858,223.228 348.721,246.688 337.794,254.661C337.157,255.126 336.832,255.846 336.712,256.633Z" style="fill:url(#_Linear16);"/>
    <path d="M299.547,226.768C299.547,230.541 301.116,235.273 305.469,241.138C309.355,238.513 310.898,233.293 310.898,229.191L310.898,229.176C310.897,228.381 311.426,227.683 312.207,227.511C319.662,225.906 335.057,220.281 335.057,211.116C335.057,207.561 333.257,203.338 327.734,203.338C316.474,203.338 315.687,211.191 309.112,214.003C306.595,215.076 299.547,218.773 299.547,226.768Z" style="fill:rgb(16,19,43);fill-rule:nonzero;"/>
    <path d="M337.794,254.661C337.157,255.126 336.832,255.846 336.712,256.633C336.565,257.571 336.533,258.756 336.59,260.031C333.515,259.888 330.254,259.341 327.51,258.486C331.777,258.163 334.508,257.361 337.794,254.661Z" style="fill:rgb(94,54,72);fill-rule:nonzero;"/>
    <path d="M324.693,238.221L325.443,238.221C325.385,235.157 322.849,232.667 319.784,232.667C316.719,232.667 314.183,235.157 314.125,238.221C314.124,238.256 314.124,238.292 314.124,238.327C314.124,241.432 316.679,243.987 319.784,243.987C322.889,243.987 325.444,241.432 325.444,238.327C325.444,238.292 325.444,238.256 325.443,238.221L324.693,238.221C324.696,239.523 324.178,240.774 323.255,241.693C322.337,242.617 321.086,243.136 319.783,243.133C318.481,243.136 317.23,242.617 316.312,241.693C315.39,240.774 314.872,239.523 314.875,238.221C314.875,236.871 315.424,235.641 316.313,234.756C317.23,233.832 318.481,233.313 319.783,233.316C321.141,233.316 322.366,233.863 323.255,234.756C324.177,235.673 324.695,236.921 324.693,238.221ZM337.433,233.353L338.183,233.353C338.183,230.533 335.863,228.213 333.043,228.213C330.223,228.213 327.903,230.533 327.903,233.353C327.903,233.354 327.903,233.356 327.903,233.357C327.903,236.177 330.223,238.497 333.043,238.498C335.863,238.497 338.183,236.177 338.183,233.357C338.183,233.356 338.183,233.354 338.183,233.353L337.433,233.353C337.433,234.568 336.942,235.663 336.147,236.458C335.325,237.284 334.207,237.749 333.043,237.749C331.878,237.749 330.76,237.284 329.938,236.458C329.114,235.636 328.651,234.517 328.653,233.353C328.653,232.138 329.144,231.043 329.938,230.248C330.761,229.425 331.879,228.963 333.043,228.966C334.256,228.966 335.351,229.453 336.147,230.248C336.972,231.07 337.435,232.188 337.433,233.353Z" style="fill:rgb(16,19,43);fill-rule:nonzero;"/>
    <path d="M305.58,241.498L314.611,238.738L314.393,238.026L305.361,240.778M323.271,234.126C323.554,233.488 324.114,232.993 324.799,232.656C325.475,232.329 326.216,232.157 326.967,232.153C327.507,232.153 327.979,232.258 328.262,232.431L328.638,231.778C328.182,231.516 327.6,231.403 326.967,231.403C326.161,231.403 325.268,231.591 324.469,231.981C323.672,232.371 322.961,232.978 322.586,233.826L323.271,234.126ZM335.763,229.693C336.545,229.341 337.251,228.553 337.811,227.848C338.365,227.136 338.744,226.513 338.749,226.506L338.109,226.116L338.046,226.221C337.731,226.71 337.388,227.181 337.018,227.631C336.533,228.223 335.932,228.808 335.463,229.003L335.763,229.693Z" style="fill:rgb(16,19,43);fill-rule:nonzero;"/>
    <rect x="398.46" y="469.671" width="17.34" height="8.002" style="fill:rgb(45,58,102);fill-rule:nonzero;"/>
    <path d="M403.897,477.636L364.985,477.636C363.791,477.637 362.808,476.655 362.807,475.461L362.807,471.853C362.807,470.646 363.782,469.671 364.985,469.671L403.897,469.671C404.816,469.671 405.561,470.421 405.561,471.336L405.561,475.971C405.561,476.893 404.816,477.636 403.897,477.636Z" style="fill:rgb(89,100,137);fill-rule:nonzero;"/>
    <path d="M520.737,414.351L501.455,475.783C500.993,477.262 499.611,478.273 498.061,478.266L410.789,477.973C410.433,477.973 410.114,477.861 409.846,477.696L409.821,477.673C409.204,477.238 408.898,476.428 409.204,475.648L409.21,475.626L433.65,412.828C434.35,411.028 436.102,409.858 438.031,409.903L517.285,411.673L518.846,411.711C519.253,411.711 519.623,411.846 519.928,412.048C520.678,412.548 521.009,413.491 520.737,414.351Z" style="fill:rgb(55,65,97);fill-rule:nonzero;"/>
    <path d="M519.928,412.048C519.607,411.835 519.231,411.718 518.846,411.711L517.285,411.673L438.031,409.903C436.105,409.859 434.348,411.033 433.65,412.828L409.21,475.626L409.204,475.648C408.898,476.428 409.204,477.238 409.821,477.673L406.434,475.408L406.325,475.333C405.658,474.896 405.386,474.044 405.676,473.301L430.129,410.473C430.832,408.681 432.586,407.51 434.51,407.548L515.318,409.356C515.725,409.363 516.094,409.483 516.4,409.693L516.47,409.738L519.928,412.048Z" style="fill:rgb(89,100,137);fill-rule:nonzero;"/>
    <path d="M469.583,450.613C468.886,450.612 468.195,450.482 467.545,450.231C464.446,449.008 463.013,445.273 464.345,441.883C465.391,439.213 467.833,437.556 470.334,437.556C471.018,437.556 471.706,437.683 472.372,437.946C475.471,439.161 476.904,442.896 475.571,446.293C474.525,448.956 472.084,450.613 469.583,450.613Z" style="fill:rgb(102,123,158);fill-rule:nonzero;"/>
    <defs>
        <linearGradient id="_Linear1" x1="0" y1="0" x2="1" y2="0" gradientUnits="userSpaceOnUse" gradientTransform="matrix(3.99313,115.797,-115.797,3.99313,606.342,349.601)"><stop offset="0" style="stop-color:rgb(160,193,232);stop-opacity:1"/><stop offset="1" style="stop-color:rgb(126,168,216);stop-opacity:1"/></linearGradient>
        <linearGradient id="_Linear2" x1="0" y1="0" x2="1" y2="0" gradientUnits="userSpaceOnUse" gradientTransform="matrix(-28.6786,18.2499,-18.2499,-28.6786,724.479,426.787)"><stop offset="0" style="stop-color:rgb(130,177,232);stop-opacity:1"/><stop offset="1" style="stop-color:rgb(96,145,200);stop-opacity:1"/></linearGradient>
        <linearGradient id="_Linear3" x1="0" y1="0" x2="1" y2="0" gradientUnits="userSpaceOnUse" gradientTransform="matrix(-30.5414,94.8975,-94.8975,-30.5414,227.602,335.677)"><stop offset="0" style="stop-color:rgb(160,193,232);stop-opacity:1"/><stop offset="1" style="stop-color:rgb(126,168,216);stop-opacity:1"/></linearGradient>
        <linearGradient id="_Linear4" x1="0" y1="0" x2="1" y2="0" gradientUnits="userSpaceOnUse" gradientTransform="matrix(3.99313,115.797,-115.797,3.99313,581.533,350.484)"><stop offset="0" style="stop-color:rgb(160,193,232);stop-opacity:1"/><stop offset="1" style="stop-color:rgb(126,168,216);stop-opacity:1"/></linearGradient>
        <linearGradient id="_Linear5" x1="0" y1="0" x2="1" y2="0" gradientUnits="userSpaceOnUse" gradientTransform="matrix(20.6979,86.2394,-86.2394,20.6979,507.039,386.224)"><stop offset="0" style="stop-color:rgb(160,193,232);stop-opacity:1"/><stop offset="1" style="stop-color:rgb(126,168,216);stop-opacity:1"/></linearGradient>
        <linearGradient id="_Linear6" x1="0" y1="0" x2="1" y2="0" gradientUnits="userSpaceOnUse" gradientTransform="matrix(22.7035,32.7941,-32.7941,22.7035,435.7,114.1)"><stop offset="0" style="stop-color:rgb(240,172,179);stop-opacity:1"/><stop offset="1" style="stop-color:rgb(212,133,140);stop-opacity:1"/></linearGradient>
        <linearGradient id="_Linear7" x1="0" y1="0" x2="1" y2="0" gradientUnits="userSpaceOnUse" gradientTransform="matrix(104.321,0,0,104.321,456.348,303.096)"><stop offset="0" style="stop-color:rgb(26,81,151);stop-opacity:1"/><stop offset="1" style="stop-color:rgb(17,51,112);stop-opacity:1"/></linearGradient>
        <linearGradient id="_Linear8" x1="0" y1="0" x2="1" y2="0" gradientUnits="userSpaceOnUse" gradientTransform="matrix(117.339,0,0,139.485,694.678,1239.08)"><stop offset="0" style="stop-color:rgb(26,81,151);stop-opacity:1"/><stop offset="1" style="stop-color:rgb(17,51,112);stop-opacity:1"/></linearGradient>
        <linearGradient id="_Linear9" x1="0" y1="0" x2="1" y2="0" gradientUnits="userSpaceOnUse" gradientTransform="matrix(29.6408,20.1809,-20.1809,29.6408,573.214,191.309)"><stop offset="0" style="stop-color:rgb(240,172,179);stop-opacity:1"/><stop offset="1" style="stop-color:rgb(212,133,140);stop-opacity:1"/></linearGradient>
        <linearGradient id="_Linear10" x1="0" y1="0" x2="1" y2="0" gradientUnits="userSpaceOnUse" gradientTransform="matrix(-1.63178,17.6773,-17.6773,-1.63178,81.5203,344.294)"><stop offset="0" style="stop-color:rgb(223,228,237);stop-opacity:1"/><stop offset="0.4" style="stop-color:rgb(136,154,196);stop-opacity:1"/><stop offset="1" style="stop-color:rgb(98,124,181);stop-opacity:1"/></linearGradient>
        <linearGradient id="_Linear11" x1="0" y1="0" x2="1" y2="0" gradientUnits="userSpaceOnUse" gradientTransform="matrix(-0.485815,21.8622,-21.8622,-0.485815,79.4123,441.268)"><stop offset="0" style="stop-color:rgb(223,228,237);stop-opacity:1"/><stop offset="0.4" style="stop-color:rgb(136,154,196);stop-opacity:1"/><stop offset="1" style="stop-color:rgb(98,124,181);stop-opacity:1"/></linearGradient>
        <linearGradient id="_Linear12" x1="0" y1="0" x2="1" y2="0" gradientUnits="userSpaceOnUse" gradientTransform="matrix(-0.56374,21.4283,-21.4283,-0.56374,79.0261,420.514)"><stop offset="0" style="stop-color:rgb(223,228,237);stop-opacity:1"/><stop offset="0.4" style="stop-color:rgb(136,154,196);stop-opacity:1"/><stop offset="1" style="stop-color:rgb(98,124,181);stop-opacity:1"/></linearGradient>
        <linearGradient id="_Linear13" x1="0" y1="0" x2="1" y2="0" gradientUnits="userSpaceOnUse" gradientTransform="matrix(-0.47418,13.2771,-13.2771,-0.47418,79.646,405.793)"><stop offset="0" style="stop-color:rgb(223,228,237);stop-opacity:1"/><stop offset="0.4" style="stop-color:rgb(136,154,196);stop-opacity:1"/><stop offset="1" style="stop-color:rgb(98,124,181);stop-opacity:1"/></linearGradient>
        <linearGradient id="_Linear14" x1="0" y1="0" x2="1" y2="0" gradientUnits="userSpaceOnUse" gradientTransform="matrix(0.474329,17.7818,-17.7818,0.474329,83.3777,387.679)"><stop offset="0" style="stop-color:rgb(223,228,237);stop-opacity:1"/><stop offset="0.4" style="stop-color:rgb(136,154,196);stop-opacity:1"/><stop offset="1" style="stop-color:rgb(98,124,181);stop-opacity:1"/></linearGradient>
        <linearGradient id="_Linear15" x1="0" y1="0" x2="1" y2="0" gradientUnits="userSpaceOnUse" gradientTransform="matrix(-15.3213,55.3256,-55.3256,-15.3213,371.046,432.194)"><stop offset="0" style="stop-color:rgb(26,80,151);stop-opacity:1"/><stop offset="1" style="stop-color:rgb(17,49,93);stop-opacity:1"/></linearGradient>
        <linearGradient id="_Linear16" x1="0" y1="0" x2="1" y2="0" gradientUnits="userSpaceOnUse" gradientTransform="matrix(35.257,27.9123,-27.9123,35.257,312.122,234.1)"><stop offset="0" style="stop-color:rgb(144,87,114);stop-opacity:1"/><stop offset="1" style="stop-color:rgb(121,73,96);stop-opacity:1"/></linearGradient>
    </defs>
</svg>
