<svg viewBox="0 0 781 154" xmlns="http://www.w3.org/2000/svg" fill-rule="evenodd" clip-rule="evenodd" stroke-linejoin="round" stroke-miterlimit="1.414"><g fill="#2a406a" fill-rule="nonzero"><path d="M294.935 77.066c-19.44 0-36.72 17.28-36.72 38.34 0 21.06 17.28 38.34 36.72 38.34 21.06 0 30.78-18.36 30.78-18.36v-19.44h-25.92v7.02h18.9v10.26s-7.56 13.5-23.76 13.5c-15.12 0-29.16-14.04-29.16-31.32s14.04-31.32 29.16-31.32c14.58 0 22.68 12.96 22.68 12.96l5.94-3.78s-9.72-16.2-28.62-16.2zM359.735 113.246c2.16 0 4.32.54 4.32.54l1.62-6.48s-2.16-1.08-4.86-1.08c-8.1 0-12.96 8.64-12.96 8.64h-.54v-6.48h-6.48v43.2h6.48v-25.92c0-6.48 5.94-12.42 12.42-12.42zM412.115 133.226l3.24-3.24c0-12.96-10.8-23.76-22.14-23.76s-22.14 10.8-22.14 23.76 10.8 23.76 22.68 23.76c14.58 0 19.98-12.42 19.98-12.42l-5.4-3.24s-4.32 9.18-14.58 9.18c-8.1 0-14.58-6.48-15.66-14.04h34.02zm-18.9-20.52c7.56 0 14.04 6.48 15.12 14.04h-30.24c1.08-7.56 7.56-14.04 15.12-14.04zM454.235 134.306c0 6.48-6.48 12.96-14.04 12.96-7.02 0-10.26-3.24-10.26-7.56 0-4.32 3.24-7.56 11.34-7.56 6.48 0 12.96 1.08 12.96 1.08v1.08zm-11.88-28.08c-10.8 0-15.66 8.1-15.66 8.1l4.86 3.78s4.32-5.4 10.8-5.4 11.88 5.4 11.88 11.88v2.7s-5.4-1.62-12.96-1.62c-11.88 0-18.36 6.48-18.36 14.04 0 7.56 6.48 14.04 16.2 14.04 9.72 0 14.58-8.64 14.58-8.64h.54v6.48h6.48v-27c0-10.26-8.1-18.36-18.36-18.36zM471.515 114.866h7.56v24.3c0 9.18 5.4 14.58 12.96 14.58 4.32 0 8.64-3.24 8.64-3.24l-2.7-5.4s-2.7 2.16-5.4 2.16c-3.78 0-7.02-3.24-7.02-8.1v-24.3h11.88v-6.48h-11.88v-16.2h-6.48v16.2h-7.56v6.48zM597.335 77.066l-31.32 43.2-31.32-43.2h-1.62v74.52h7.02v-54.54h.54l25.38 35.1 25.38-35.1h.54v54.54h7.02v-74.52h-1.62zM617.315 151.586h6.48v-43.2h-6.48v43.2zm7.56-64.8c0-2.16-2.16-4.32-4.32-4.32s-4.32 2.16-4.32 4.32 2.16 4.32 4.32 4.32 4.32-2.16 4.32-4.32zM639.995 151.586h6.48v-25.92c0-6.48 6.48-12.96 14.04-12.96 6.48 0 11.88 5.4 11.88 11.88v27h6.48v-27c0-10.26-8.1-18.36-17.28-18.36-9.72 0-14.58 8.64-14.58 8.64h-.54v-6.48h-6.48v43.2zM727.475 134.306c0 6.48-6.48 12.96-15.12 12.96-7.56 0-14.58-7.02-14.58-17.28 0-10.26 7.02-17.28 14.58-17.28 8.64 0 15.12 6.48 15.12 12.96v8.64zm0 17.28h6.48v-72.36h-6.48v35.64h-.54s-4.86-8.64-15.66-8.64c-10.26 0-20.52 10.26-20.52 23.76 0 13.5 10.26 23.76 20.52 23.76 10.8 0 15.66-8.64 15.66-8.64h.54v6.48zM763.115 147.266c-7.02 0-12.42-7.02-12.42-7.02l-4.86 4.32s5.94 9.18 17.28 9.18c10.8 0 17.28-6.48 17.28-14.04 0-15.12-24.84-11.88-24.84-21.06 0-3.24 2.7-5.94 8.64-5.94s10.8 5.4 10.8 5.4l4.86-4.32s-5.4-7.56-15.66-7.56c-9.72 0-15.66 5.94-15.66 12.42 0 15.12 24.84 11.88 24.84 21.06 0 3.78-3.78 7.56-10.26 7.56z"/></g><g fill-rule="nonzero"><path d="M172.303 92.098a93.985 93.985 0 0 1-6.262 12.671c-8.321 14.033-18.326 27.435-31.1 36.907a65.983 65.983 0 0 1-3.991 2.758c-.635.046-1.272.082-1.908.109-1.174.05-2.361.066-3.504.022 2.03-2.092 3.767-4.55 5.27-7.241a89.466 89.466 0 0 0 3.047-2.413c12.676-10.42 22.744-24.196 30.085-38.72.141-.28.281-.56.419-.841a86.187 86.187 0 0 1 7.944-3.252zm-2.143-12.011c3.698-13.154 4.617-27.169 3.391-40.692 0 0 .058-.093-.064-.037-12.521 5.791-24.2 13.692-33.723 23.528a107.523 107.523 0 0 0-1.588-6.976c9.669-9.266 21.173-16.733 33.355-22.255 1.812-.821 3.78-1.571 3.78-1.571.401-.077.135-.12 1.062-.075 2.956.497 3.042 5.041 3.323 8.894.91 12.482.061 25.134-2.904 37.241a104.319 104.319 0 0 0-6.632 1.943z" fill="#87c9df"/><path d="M113.097.042c1.407.29 2.227 1.503 3.041 3.099 12.937 25.367 23.284 53.148 22.755 81.546-.343 18.439-2.348 37.726-11.979 53.05-3.547 5.642-9.067 10.705-15.629 9.909-7.041-.853-12.157-7.679-15.65-15.167-8.06-17.278-10.106-37.602-9.02-56.248 1.519-26.094 11.298-51.593 23.359-74.493 0 0 .812-1.308 1.917-1.614.731-.203.948-.1 1.206-.082zm-.55 9.96c-11.122 23.172-20.309 48.052-20.078 72.977.157 16.962 1.781 34.383 9.768 49.295 2.701 5.044 6.684 10.91 12.228 9.18 4.939-1.541 7.92-7.148 10.26-12.416 9.444-21.259 10.339-46.648 5.861-68.557-3.571-17.475-10.001-34.338-17.748-50.479 0 0 .034-.674-.291 0z" fill="#5ea3cf"/><path d="M111.214 150.47c-5.228 3.444-12.673 3.504-19.317 2.74-17.553-2.02-34.5-9.541-49.37-18.744-18.293-11.323-32.35-29.376-41.143-49.09C.856 84.192.153 82.452.153 82.452c-.589-1.851.56-3.792 2.788-4.111 5.198-.744 10.464-.95 15.657-.933 19.539.127 39.112 4.817 55.898 15.037a243.01 243.01 0 0 1 9.559 6.097c.274 2.802.634 5.6 1.085 8.384-11.891-9.167-25.142-16.671-39.59-20.264-9.149-2.275-18.605-3.263-28.011-3.255-3.4.017-6.798.159-10.183.466 0 0 .64 1.513 1.115 2.48 9.428 19.154 23.811 35.783 42.372 45.987 13.65 7.505 28.286 13.9 43.718 15.101 2.726.212 5.765.345 8.488-.075.259.19.524.374.793.554 2.213 1.474 4.766 2.32 7.372 2.55zM141.204 98.544c13.185-9.383 27.978-16.21 43.736-19.121 7.559-1.397 15.291-2.022 22.924-2.016 5.033.025 10.088.226 15.034 1.002 0 0 3.456 1.254 2.166 4.47-4.363 10.878-10.753 21.087-18.298 30.277-14.745 17.958-36.008 30.27-58.766 36.979-9.678 2.853-20.086 5.2-29.589 2.245a15.043 15.043 0 0 1-4-1.937c2.606-.274 5.147-1.164 7.333-2.659.225-.154.446-.311.665-.473 4.164.823 8.84.255 13.254-.459 16.242-2.63 32.06-9.628 45.682-18.535 16.262-10.634 28.611-26.853 36.721-44.38l.026-.058c-3.748-.352-7.517-.483-11.275-.471-17.832.116-35.788 4.056-51.102 13.137-5.291 3.137-10.585 6.507-15.588 10.204.441-2.727.801-5.464 1.077-8.205z" fill="#b5deeb"/><path d="M52.94 91.983a83.275 83.275 0 0 1 8.209 3.367 90.293 90.293 0 0 0 4.176 7.726c7.872 12.998 17.168 25.576 29.35 34.263l.016.03.04.071.053.097.054.095.038.07.017.029.141.247.03.054.029.05.145.249.016.029.035.059.058.097.067.113.033.057.013.021.153.254.03.048.098.161.073.117c.117.188.236.375.356.561l.076.117.04.062.009.014.01.014.043.067.06.089.01.016.006.009c.12.181.241.36.364.538l.086.123.035.05.011.017.015.02.046.066.051.073.016.022.011.015.03.043.092.128.253.347.005.006.015.021.074.1.03.039.013.018.02.026.049.065.045.06.02.025.015.02.032.043.067.086.02.027.008.01c.086.111.173.222.26.331l.004.006.018.023.081.101.026.031.013.017.024.03.053.065.041.05.021.026.02.024.036.043.059.072.025.031.012.014.022.026.11.132.136.159.112.13.022.025.013.016.028.031.059.067.036.041.022.025.024.027.04.045.053.06.029.032.016.018.025.027.08.089.026.028.007.007.14.153.12.129.019.019.012.013.031.033.065.069.032.034.022.023.028.029.045.046.049.051.008.008c-1.804.12-3.689.017-5.572-.191-3.17-1.998-6.268-4.486-9.2-7.106-12.14-10.844-22.073-24.395-29.296-38.859a95.655 95.655 0 0 1-2.963-6.541zm-4.508-13.789c-3.542-14.128-4.189-29.08-2.101-43.409 0 0 .094-.897.582-1.564.578-.792 1.069-1.328 2.811-1.204 2.08.399 4.734 1.876 7.24 3.11 10.983 5.406 21.243 12.337 30.054 20.77l-.031.112-.069.255-.014.054-.008.03-.041.153-.05.187-.014.052-.015.056-.052.196-.035.137-.009.032-.018.073-.066.25-.023.092-.002.008-.011.042c-.098.384-.194.768-.287 1.152l-.019.075-.004.016-.023.095-.054.226-.021.087-.011.046-.032.135-.041.176-.016.067-.016.069-.043.183-.031.134-.009.039-.017.078-.056.244-.022.097-.001.006-.007.029c-.125.555-.245 1.11-.36 1.665l-.002.009-.001.004-.037.176-.05.247a76.632 76.632 0 0 0-1.562-1.561c-9.289-9.025-20.202-16.334-31.94-21.762 0 0-.051-.097-.064.037-1.243 13.719-.16 27.697 3.611 40.872a107.435 107.435 0 0 0-7.013-2.073z" fill="#87c9df"/></g></svg>